<svg xmlns="http://www.w3.org/2000/svg" xmlns:svg="http://www.w3.org/2000/svg" id="svg2987" width="16" height="16" version="1.1"><metadata id="metadata2992"/><g id="layer1" transform="translate(0,-1036.3618)"><path id="path3806" fill="#464646" fill-opacity="1" stroke="#464646" stroke-dasharray="none" stroke-linecap="butt" stroke-linejoin="miter" stroke-miterlimit="3.6" stroke-opacity="1" stroke-width=".68" d="m 5.0621446,1039.5621 c 5.6960494,0 6.2053964,0 6.2053964,0 l -0.0238,-0.8981 -3.131226,-0.018 -3.1312269,-0.018 z"/><path id="path3770-7-0-9" fill="#b1b1b1" fill-opacity="1" stroke="none" d="m 12.4892,1052.3561 0,-2.1733 2.173211,0 0,2.1733 z"/><path id="path3770-7-0" fill="#b1b1b1" fill-opacity="1" stroke="none" d="m 1.6231475,1052.3561 0,-2.1733 2.1732107,0 0,2.1733 z"/><path id="path3775" fill="none" stroke="#aeaeae" stroke-dasharray="none" stroke-linecap="butt" stroke-linejoin="miter" stroke-miterlimit="3.6" stroke-opacity="1" stroke-width=".543" d="m 2.7097528,1041.49 2.1732106,-1.0866 0,-2.1251"/><path id="path3777" fill="none" stroke="#aeaeae" stroke-dasharray="none" stroke-linecap="butt" stroke-linejoin="miter" stroke-miterlimit="3.6" stroke-opacity="1" stroke-width=".543" d="m 13.575806,1041.49 -2.17321,-1.0866 0.0065,-2.0833"/><path id="path3019" fill="#464646" fill-opacity="1" stroke="none" d="m 1.6231475,1041.49 c 0.014561,3.8432 -0.019342,6.178 0,7.6063 0.030207,2.23 0,2.1732 0,2.1732 1.1853886,0 1.1853886,0 1.1853886,1.0866 l 10.6684869,0 c 0,-1.0866 0,-1.0866 1.185388,-1.0866 0,-3.26 0,-6.5198 0,-9.7795 z"/><path id="path3023" fill="none" stroke="#09c900" stroke-dasharray="none" stroke-linecap="butt" stroke-linejoin="miter" stroke-miterlimit="3.6" stroke-opacity="1" stroke-width="1.075" d="m 3.7963582,1050.1828 c 6.3865768,0 8.6928418,0 8.6928418,0"/><path id="path3025" fill="none" stroke="#fcc200" stroke-dasharray="none" stroke-linecap="butt" stroke-linejoin="miter" stroke-miterlimit="3.6" stroke-opacity="1" stroke-width="1.162" d="m 3.7963582,1048.0095 8.6928418,0"/><path id="path3027" fill="none" stroke="#00a3fb" stroke-dasharray="none" stroke-linecap="butt" stroke-linejoin="miter" stroke-miterlimit="3.6" stroke-opacity="1" stroke-width="1.162" d="m 3.7963582,1045.8365 8.6928418,0"/><path id="path3029" fill="none" stroke="#ff4091" stroke-dasharray="none" stroke-miterlimit="3.6" stroke-opacity="1" stroke-width="1.162" d="m 3.7963582,1043.6632 8.6928418,0"/><path id="path3770" fill="#464646" fill-opacity="1" stroke="none" d="m 1.6231475,1042.5766 0,-4.3464 1.0866053,0 0,4.3464 z"/><path id="path3770-1" fill="#464646" fill-opacity="1" stroke="none" d="m 13.575806,1042.5766 0,-4.3464 1.086605,0 0,4.3464 z"/><path id="path3770-7" fill="#b1b1b1" fill-opacity="1" stroke="none" d="m 1.6231475,1038.2302 0,-1.0867 1.0866053,0 0,1.0867 z"/><path id="path3770-4" fill="#b1b1b1" fill-opacity="1" stroke="none" d="m 13.575806,1038.2302 0,-1.0867 1.086605,0 0,1.0867 z"/><path id="path3767" fill="none" stroke="#464646" stroke-dasharray="none" stroke-linecap="butt" stroke-linejoin="miter" stroke-miterlimit="3.6" stroke-opacity="1" stroke-width=".543" d="m 5.3413804,1038.5358 c 2.6160566,-2.5761 3.1649988,-2.3796 5.6028086,0.018"/></g></svg>